<svg width="594" height="841" viewBox="0 0 594 841" fill="none" xmlns="http://www.w3.org/2000/svg">
  <!-- Background -->
  <rect width="594" height="841" fill="hsl(0, 0%, 4%)"/>
  
  <!-- Main logo area - moved up -->
  <circle cx="297" cy="112" r="77" fill="hsl(0, 0%, 10%)"/>
  
  <!-- Smartphone body -->
  <rect x="262" y="56" width="72" height="112" rx="12" fill="hsl(0, 0%, 100%)" stroke="hsl(0, 0%, 100%)" stroke-width="2"/>
  
  <!-- Phone screen -->
  <rect x="267" y="61" width="62" height="102" rx="8" fill="hsl(0, 0%, 5%)"/>
  
  <!-- Screen content -->
  <rect x="272" y="66" width="52" height="92" rx="4" fill="hsl(0, 0%, 100%)"/>
  <rect x="272" y="66" width="52" height="92" rx="4" fill="hsl(0, 0%, 5%)" opacity="0.3"/>
  <rect x="272" y="66" width="52" height="92" rx="4" fill="hsl(0, 0%, 100%)" opacity="0.8"/>
  
  <!-- White parallelogram -->
  <path d="M 312 128 L 312 148 L 272 158 L 272 138 Z" fill="hsl(0, 0%, 100%)"/>
  
  <!-- Notch -->
  <rect x="287" y="59" width="18" height="4" rx="2" fill="hsl(0, 0%, 100%)"/>
  
  <!-- Home indicator -->
  <rect x="279" y="153" width="36" height="4" rx="2" fill="hsl(190, 100%, 50%)"/>
  
  <!-- Volume buttons -->
  <rect x="257" y="71" width="3" height="10" rx="1.5" fill="hsl(0, 0%, 100%)"/>
  <rect x="257" y="88" width="3" height="10" rx="1.5" fill="hsl(0, 0%, 100%)"/>
  
  <!-- Power button -->
  <rect x="332" y="79" width="3" height="15" rx="1.5" fill="hsl(0, 0%, 100%)"/>
  
  <!-- Company name -->
  <text x="120" y="225" font-family="Arial, sans-serif" font-size="33" font-weight="bold" text-anchor="start" fill="hsl(0, 0%, 100%)">URA</text>
  <!-- Plus icon in primary color - same height as text (33px) -->
  <rect x="195" y="210" width="26" height="6" rx="1" fill="hsl(190, 100%, 50%)"/>
  <rect x="205" y="200" width="6" height="26" rx="1" fill="hsl(190, 100%, 50%)"/>
  <text x="225" y="225" font-family="Arial, sans-serif" font-size="33" font-weight="bold" text-anchor="start" fill="hsl(0, 0%, 100%)">UJ SMARTFONA</text>
  
  <!-- Services Section -->
  <text x="60" y="300" font-family="Arial, sans-serif" font-size="30" font-weight="bold" text-anchor="start" fill="hsl(190, 100%, 50%)">• KOMPLEKSOWY SERWIS</text>
  
  <!-- Rich Accessories Section -->
  <text x="60" y="380" font-family="Arial, sans-serif" font-size="30" font-weight="bold" text-anchor="start" fill="hsl(190, 100%, 50%)">• BOGATY WYBÓR AKCESORIÓW</text>
  
  <!-- Phone Sales Section -->
  <text x="60" y="460" font-family="Arial, sans-serif" font-size="30" font-weight="bold" text-anchor="start" fill="hsl(190, 100%, 50%)">• SPRZEDAŻ TELEFONÓW</text>
  
  <!-- Promotion in rounded square with background -->
  <rect x="100" y="520" width="394" height="80" rx="15" fill="hsl(0, 0%, 10%)" stroke="hsl(190, 100%, 50%)" stroke-width="2"/>
  <text x="297" y="550" font-family="Arial, sans-serif" font-size="25" font-weight="bold" text-anchor="middle" fill="hsl(190, 100%, 50%)">PROMOCJA</text>
  <text x="297" y="580" font-family="Arial, sans-serif" font-size="20" font-weight="normal" text-anchor="middle" fill="hsl(0, 0%, 100%)">Do każdej wymiany ekranu szkło gratis!</text>
  
  <!-- Contact information -->
  <text x="297" y="680" font-family="Arial, sans-serif" font-size="37" font-weight="bold" text-anchor="middle" fill="hsl(0, 0%, 100%)">604 436 345</text>
  <text x="297" y="711" font-family="Arial, sans-serif" font-size="29" font-weight="normal" text-anchor="middle" fill="hsl(0, 0%, 100%)">www.uratuj-smartfona.pl</text>
  <text x="297" y="742" font-family="Arial, sans-serif" font-size="20" font-weight="normal" text-anchor="middle" fill="hsl(0, 0%, 100%)">uratujswojegosmartfona@gmail.com</text>
</svg>
